<?xml version="1.0" encoding="UTF-8"?>
<svg id="Capa_2" data-name="Capa 2" xmlns="http://www.w3.org/2000/svg" viewBox="0 0 218.97 211.83">
  <defs>
    <style>
      .cls-1 {
        fill: #f6f6f6;
      }

      .cls-2 {
        fill: #dadada;
      }

      .cls-3 {
        opacity: .2;
      }
    </style>
  </defs>
  <g id="Capa_1-2" data-name="Capa 1">
    <g class="cls-3">
      <g id="QeL0m5">
        <path class="cls-2" d="m218.97,152.34c-12.64,38.59-51.51,64.17-96.35,58.77-43.17-5.2-75.93-42.21-77.69-76.65-.27-5.22-1-10.66-2.21-15.9-.3-1.3-.5-2.97-2.23-2.8-1.69.17-1.78,1.86-1.73,3.19.15,3.84.67,7.68.6,11.5-.09,5.78-2.09,7.16-7.63,5.77q-8.49-2.12-9.07,6.77c-.14,2.08-.15,4.37-2.83,5.09-1.5.41-2.67-.3-3.55-1.36-1.8-2.19-.61-3.9,1.06-5.5.4-.39.76-.82,1.02-1.32.57-1.08.9-2.36-.3-3.09-.92-.56-1.77.26-2.46.97-1.48,1.51-2.92,3.06-4.5,4.46-1.29,1.16-2.92,1.03-4.31.24-1.44-.82-2.01-2.22-1.95-3.91.08-1.85,1.21-2.72,2.79-3.21,2.27-.71,6.86.69,6.03-2.89-.78-3.42-4.92-1-7.59-.71-2.21.24-4.3.26-5.46-2.1-.83-1.67-.95-3.42.47-4.8,1.81-1.71,3.78-1.22,5.89-.33,2.34.97,4.38,3.32,7.4,2.05-.23-3.37-3.38-4.03-5.13-5.9-1.36-1.44-2.7-2.86-2.04-5.04.46-1.52,1.77-2.02,3.17-1.96,2.41.1,3.01,2.02,3.61,3.9.68,2.13,1.19,5.26,3.82,4.86,2.27-.34,1.55-3.48,1.84-5.48.05-.37,0-.76-.03-1.15-.14-2.29.8-3.89,3.21-3.79,2.59.13,3.81,1.98,3.45,4.38-.32,2.05-1.2,4.02-1.9,6-.53,1.43-.52,2.69.93,3.48,1.53.85,3.26,1.56,4.94,1.04,1.66-.51,1.18-2.26,1.01-3.51-.66-4.57-1.7-9.09-2.11-13.68-1.01-11.04,4.3-15.31,14.37-11.15,3.92,1.62,4.43.04,5.29-2.85,6.03-20.4,17.56-36.18,37.91-44.33,2.6-1.03,3.01-2.14,1.84-4.67-3.19-6.81-1.24-12.71,3.84-17.82,2.03-2.05,4.17-3.99,6.15-6.08,2.87-3,3.21-5.65-1.24-7.52-1.04-.44-2.13-1-2.94-1.78-1.86-1.79-3.74-4.12-1.49-6.44,2.5-2.57,4.37-.31,6.06,1.75,1.37,1.66,2.6,4.53,5.33,2.98,2.97-1.69.54-3.59-.2-5.65-.29-.78-1-1.75-1.05-2.34-.17-1.74.24-3.02,2.01-3.6,1.71-.57,3.19-.07,3.86,1.54.81,1.95.71,3.97.11,6.12-.53,1.89-1.86,4.3.7,6.05,1.93-1.75,2.61-3.98,3.55-6.08.98-2.23,2.4-4,5.24-3.58,2.04.3,2.94,1.77,3.2,3.59.35,2.49-1.15,3.89-3.26,4.82-1.23.54-2.49,1.06-3.64,1.73-1.38.8-2.75,1.88-1.67,3.65.89,1.47,2.41.78,3.62.26.87-.37,1.6-1.06,2.45-1.52,1.68-.91,3.36-.94,4.72.55,1.12,1.21,1.49,2.67.81,4.27-.81,1.89-2.42,2.37-4.26,2.27-1.15-.06-2.28-.34-3.43-.49-1.6-.22-4-1.53-4.52.54-.59,2.4,1.97,2.86,3.91,3.01,2.34.19,3.44,1.49,3.59,3.69.09,1.22-.38,2.22-1.59,2.82-2.17,1.07-3.72-.04-5.1-1.46-.93-.95-1.73-2.06-2.45-3.2-1.23-1.95-2.98-2.3-5-1.71-4.65,1.37-9.17,10.07-7.44,14.21,1.72,4.09,7.63,5.33,13.23,2.58,4.95-2.43,10.02-4.73,14.65-7.7,6.08-3.9,12.48-4.67,19.32-3.33,12.71,2.5,23.16,9.14,32.21,18.09,2.43,2.41,3.26,5.09,2.31,7.56-15.97-9.15-35.35-12.83-55.06-8.99-42.82,8.32-70.94,48.91-62.83,90.64,8.12,41.73,49.4,68.82,92.22,60.49,28.86-5.61,51.05-22.9,59.96-48.31h4.54Z"/>
      </g>
      <path class="cls-1" d="m214.43,152.34c-8.91,25.41-31.1,42.7-59.96,48.31-42.82,8.33-84.1-18.76-92.22-60.49-8.11-41.73,20.01-82.32,62.83-90.64,19.71-3.84,39.09-.16,55.06,8.99-.46,1.23-1.36,2.42-2.72,3.49-13.06,10.32-26.76,18.41-44.34,10.62-5.32-2.36-10.73-1.79-14.91,2.65-3.85,4.1-4.93,9.07-2.8,14.42,2.24,5.61,6.22,9.19,12.4,9.83,6.32.66,8.41-1.88,6.84-8-.32-1.28-.44-2.63-.52-3.96-.14-2.61,1.49-3.42,3.7-3.14,2.4.32,3.03,2.12,2.72,4.23-.11.71-.74,1.33-1.07,2.02-.68,1.46-1.2,3.31.35,4.14,1.92,1.02,2.51-1,3.18-2.34.34-.68.54-1.45.91-2.12,1.11-2.02,2.13-4.27,5.11-3.66,1.95.4,2.93,1.7,3.15,3.61.37,3.19-2.34,3.59-4.55,4.43-.32.12-.62.26-.91.43-1.16.69-2.51,1.51-1.66,3.08.73,1.33,2.22,1.42,3.57.87,1.24-.51,2.45-1.12,3.61-1.8,2.18-1.29,4.34-1.73,6.31.25,1.35,1.35,1.67,3.07.67,4.75-1.47,2.51-3.83,2.03-6.15,1.57-.55-.11-1.13-.18-1.69-.31-1.63-.37-3.7-1.44-4.46.79-.66,1.97,1.66,2.14,2.89,2.86,1.32.79,2.68,1.51,4.01,2.29,1.44.83,2.46,2.02,2.06,3.75-.26,1.09-1,2.09-2.32,2.31-1.77.29-2.92-.71-3.85-2.01-1.41-1.94-2.38-5.63-5.08-4.53-3.16,1.3-.56,4.51-.43,6.94.01.19.06.51.1.69.44,2.04-.36,3.58-2.32,3.97-1.97.4-3.36-.9-3.81-2.75-.35-1.45-.38-3.03-.28-4.54.47-6.73-.42-7.57-6.91-6.18-10.44,2.21-20.05,2.18-25.53-10.42-2.92,7.37-4.79,14.06-8.6,19.81-2.49,3.77-.95,4.2,2.69,4.38,7.29.38,9.82,2.61,11.36,9.8.88,4.12,1.2,8.36,1.77,12.55.23,1.69-.08,3.82,1.74,4.59,1.69.73,3.41-.23,4.59-1.63,1.33-1.55,1.94-3.39.98-5.35-.6-1.18-1.57-2.16-2.23-3.32-.81-1.42-.95-2.97.02-4.36.74-1.02,1.96-1.25,3.13-.95,1.69.43,2.51,1.69,2.59,3.39.08,1.54,0,3.08.13,4.61.12,1.34.3,2.88,1.98,3.09,1.52.19,2.55-.93,3.11-2.17.55-1.21.88-2.55,1.08-3.87.26-1.69.86-2.9,2.74-3.15,1.53-.21,2.64.26,3.32,1.66.76,1.56.51,3.03-.66,4.26-1.32,1.39-2.79,2.63-4.13,4.01-.62.65-1.47,1.41-.69,2.44.66.87,1.64.95,2.6.55,2.11-.88,4.13-2.18,6.32-2.66,2.93-.63,5.07,1.02,5.18,3.94.1,2.75-1.85,4.14-4.65,3.78-1.9-.25-3.75-.84-5.65-1.07-1.34-.15-2.92-.06-3.16,1.7-.24,1.74,1.24,2.22,2.56,2.53.93.22,1.91.26,2.86.26,3.13.02,4.92,2.04,5.16,4.69.12,1.31-.27,2.23-1.32,2.83-2.1,1.2-4.46.18-6.36-1.4-1.53-1.28-2.7-3.09-4.56-4.23-1.07-.66-2.41.21-2.24,1.44.22,1.66.99,2.84,2.58,3.91,1.77,1.2,1.68,2.7,1.01,3.96-.42.8-1.72,1.65-2.66,1.69-1.6.05-3.04-.97-3.48-2.56-.56-2-.92-4.21-.93-6.15-.04-4.87-1.88-4.63-4.88-4.42-1.5.1-3.04.57-4.46,1.14-4.91,1.98-7.64-.14-9.28-4.64-1.32-3.6-2.36-7.32-4.71-10.48-3.96-5.35-9.59-7.52-14.88-5.21-5.8,2.53-5.42,7.59-4.69,12.53.44,2.96,1.2,5.86,2.28,8.65,8.51,21.87,25.22,33.76,47.81,36.67,35.45,4.58,66.48-12.19,80.28-41.64h3.37Z"/>
    </g>
  </g>
</svg>