<?xml version="1.0" encoding="UTF-8"?>
<svg id="Capa_2" data-name="Capa 2" xmlns="http://www.w3.org/2000/svg" viewBox="0 0 213.91 50.86">
  <defs>
    <style>
      .cls-1 {
        font-size: 5.33px;
      }

      .cls-1, .cls-2, .cls-3 {
        fill: #fff;
      }

      .cls-1, .cls-3 {
        font-family: Arboria-Book, Arboria;
      }

      .cls-4 {
        letter-spacing: -.02em;
      }

      .cls-5 {
        letter-spacing: -.01em;
      }

      .cls-6 {
        letter-spacing: 0em;
      }

      .cls-7 {
        fill: #eeeded;
      }

      .cls-8 {
        fill: #dadada;
      }

      .cls-9 {
        letter-spacing: 0em;
      }

      .cls-10 {
        letter-spacing: 0em;
      }

      .cls-3 {
        font-size: 29.09px;
      }

      .cls-11 {
        fill: none;
        stroke: #fff;
        stroke-linecap: round;
        stroke-miterlimit: 10;
        stroke-width: 1.26px;
      }

      .cls-12 {
        letter-spacing: -.02em;
      }
    </style>
  </defs>
  <g id="Capa_1-2" data-name="Capa 1">
    <g>
      <text class="cls-3" transform="translate(68.7 35.45)"><tspan x="0" y="0">SE</tspan><tspan class="cls-12" x="35.49" y="0">R</tspan><tspan x="54.28" y="0">VIBIEN</tspan></text>
      <g>
        <path class="cls-8" d="m125.44,16.6h2.39l5.82,12.86c.47,1.05,1.22,3.32,1.22,3.32,0,0,.79-2.24,1.25-3.32l5.82-12.86h2.39l-8.38,18.96h-2.12l-8.38-18.96Z"/>
        <line class="cls-11" x1="63.14" y1="12.25" x2="63.14" y2="42.75"/>
        <g>
          <g id="QeL0m5">
            <path class="cls-7" d="m24.74,49.83c-9.8-3.16-15.74-13.25-14.6-21.33.17-1.23.25-2.52.21-3.8-.01-.32.02-.71-.39-.75-.4-.04-.5.35-.55.66-.14.9-.19,1.81-.38,2.7-.28,1.34-.81,1.57-2.03,1q-1.88-.88-2.41,1.16c-.13.48-.23,1.01-.89,1.06-.37.03-.61-.19-.76-.48-.32-.59.03-.93.49-1.23.11-.07.21-.16.3-.26.18-.23.32-.51.07-.73-.19-.17-.42-.02-.62.11-.41.28-.82.58-1.25.84-.35.21-.72.11-1.01-.14-.3-.25-.37-.6-.28-1,.1-.43.4-.58.79-.62.56-.06,1.56.47,1.53-.4-.03-.83-1.1-.45-1.73-.51-.52-.04-1.01-.13-1.17-.73-.12-.43-.07-.84.33-1.09.5-.32.93-.11,1.38.19.5.33.87.97,1.63.81.1-.79-.6-1.09-.93-1.6-.25-.4-.5-.79-.24-1.26.17-.33.5-.39.83-.31.56.13.61.61.66,1.07.06.53.04,1.28.67,1.3.54.02.52-.74.68-1.19.03-.08.03-.18.04-.27.07-.54.36-.87.92-.73.6.15.8.63.6,1.17-.16.46-.46.88-.71,1.31-.19.31-.24.6.06.85.32.27.69.51,1.1.47.41-.04.38-.47.39-.77.05-1.09.02-2.19.13-3.27.27-2.61,1.69-3.37,3.85-1.94.84.55,1.03.21,1.36-.42,2.32-4.47,5.72-7.62,10.82-8.59.65-.12.8-.36.64-1-.43-1.73.29-3.01,1.7-3.97.56-.38,1.15-.74,1.71-1.13.8-.57,1-1.17.05-1.8-.22-.15-.45-.33-.6-.55-.35-.5-.68-1.12-.05-1.56.7-.48,1.03.12,1.33.68.24.45.4,1.17,1.1.93.77-.26.29-.81.21-1.32-.03-.2-.15-.45-.14-.59.04-.41.19-.69.63-.75.42-.05.75.13.83.53.1.49-.01.96-.25,1.43-.21.42-.63.92-.11,1.44.53-.32.79-.81,1.1-1.25.33-.47.74-.82,1.38-.6.46.16.6.54.58.98-.03.6-.44.85-.98.97-.31.07-.63.13-.92.24-.36.12-.72.31-.55.77.14.38.52.29.83.22.22-.05.42-.17.64-.24.43-.14.82-.07,1.07.34.2.33.23.69,0,1.03-.28.4-.67.44-1.09.34-.26-.07-.52-.18-.77-.27-.36-.12-.86-.54-1.08-.08-.25.53.33.75.77.88.54.15.73.5.67,1.02-.04.29-.19.5-.5.58-.55.15-.86-.18-1.12-.57-.17-.26-.31-.56-.43-.85-.2-.51-.59-.67-1.08-.62-1.14.11-2.59,1.92-2.37,2.97.21,1.03,1.53,1.58,2.96,1.2,1.26-.34,2.54-.65,3.75-1.13,1.59-.63,3.11-.52,4.64.1,2.84,1.16,4.97,3.17,6.67,5.66.46.67.53,1.33.2,1.86-3.3-2.85-7.64-4.58-12.4-4.58-10.33,0-18.7,8.16-18.7,18.23s8.37,18.23,18.7,18.23c9.51,0,17.37-6.93,18.55-15.89.43-1.69.65-3.49.6-5.35,0-.42-.13-.85,0-1.34.04-.13.2-.18.3-.08.39.37.26.85.31,1.24,1.77,15.1-13.09,27.11-27.64,22.41Z"/>
          </g>
          <path class="cls-2" d="m51.16,32.95c-1.18,8.96-9.04,15.89-18.55,15.89-10.33,0-18.7-8.16-18.7-18.23s8.37-18.23,18.7-18.23c4.76,0,9.09,1.73,12.4,4.58-.16.27-.43.5-.79.69-3.5,1.81-7.06,3.07-10.79.46-1.13-.79-2.41-.9-3.59-.06-1.08.78-1.56,1.89-1.3,3.23.27,1.4,1.03,2.42,2.44,2.84,1.44.44,2.04-.06,1.95-1.55-.02-.31.02-.63.06-.94.08-.61.5-.73,1-.56.54.18.61.63.44,1.11-.06.16-.23.28-.34.42-.23.31-.43.72-.11.98.4.32.63-.12.84-.4.11-.14.19-.31.31-.45.35-.42.69-.9,1.36-.62.44.18.6.53.57.98-.06.76-.71.73-1.26.83-.08.01-.16.03-.23.06-.3.11-.65.24-.52.64.11.34.45.43.79.36.31-.06.62-.15.92-.26.56-.2,1.09-.2,1.46.34.25.38.25.79-.06,1.14-.46.52-.98.3-1.5.09-.12-.05-.25-.09-.38-.15-.36-.16-.8-.5-1.07-.02-.24.43.29.57.54.8.27.24.56.47.83.71.3.26.48.58.31.96-.11.24-.33.44-.64.43-.43-.01-.65-.3-.8-.64-.24-.52-.3-1.42-.98-1.28-.8.16-.33,1.02-.41,1.6,0,.04,0,.12,0,.16.01.49-.24.82-.72.82-.48,0-.74-.36-.76-.81-.02-.35.05-.72.14-1.07.41-1.54.24-1.78-1.33-1.75-2.53.04-4.76-.4-5.46-3.58-1.01,1.58-1.75,3.05-2.89,4.22-.75.76-.41.93.43,1.14,1.68.42,2.16,1.05,2.2,2.79.02,1-.1,2-.16,3-.02.4-.19.88.2,1.15.36.24.8.1,1.14-.17.38-.3.6-.7.47-1.2-.08-.3-.27-.57-.37-.87-.12-.37-.09-.73.2-1.01.22-.2.51-.2.77-.08.37.18.51.51.45.91-.05.36-.14.72-.18,1.08-.03.32-.06.68.32.81.34.11.63-.1.82-.36.18-.26.32-.55.43-.85.14-.38.33-.64.78-.61.36.02.6.18.7.54.11.4-.02.73-.35.96-.37.26-.77.49-1.14.75-.17.12-.4.26-.27.54.11.23.34.29.58.24.53-.11,1.06-.32,1.59-.33.71-.01,1.13.47,1.03,1.15-.1.64-.62.88-1.25.67-.43-.14-.84-.36-1.27-.5-.3-.1-.68-.15-.81.25-.13.39.19.57.48.7.2.09.43.15.65.19.73.15,1.05.7.99,1.32-.03.31-.16.51-.44.6-.54.18-1.04-.16-1.41-.61-.3-.37-.49-.84-.87-1.19-.22-.2-.57-.06-.59.24-.02.4.1.7.42,1.03.36.36.27.7.06.97-.13.16-.48.3-.7.27-.37-.06-.66-.36-.69-.75-.04-.49-.02-1.02.06-1.47.21-1.13-.23-1.16-.93-1.25-.36-.04-.73,0-1.09.06-1.23.24-1.77-.38-1.95-1.5-.14-.9-.22-1.81-.62-2.65-.68-1.42-1.89-2.18-3.22-1.88-1.46.33-1.6,1.52-1.66,2.7-.03.71.01,1.42.14,2.11.99,5.47,4.34,8.99,9.46,10.69,10.51,3.49,21.14-3.05,23.76-13.27Z"/>
        </g>
        <text class="cls-1" transform="translate(148.14 41.57)"><tspan class="cls-4" x="0" y="0">L</tspan><tspan x="3.1" y="0">O H</tspan><tspan class="cls-5" x="12.03" y="0">A</tspan><tspan x="15.71" y="0">CEM</tspan><tspan class="cls-10" x="26.78" y="0">O</tspan><tspan class="cls-6" x="30.86" y="0">S POR U</tspan><tspan class="cls-9" x="51.18" y="0">S</tspan><tspan x="54.37" y="0">TED</tspan></text>
      </g>
    </g>
  </g>
</svg>